<?xml version="1.0" standalone="no"?><svg xmlns="http://www.w3.org/2000/svg" viewBox="0 0 1440 320"><path fill="#5161ce" fill-opacity="1" d="M0,224L6.2,229.3C12.3,235,25,245,37,218.7C49.2,192,62,128,74,122.7C86.2,117,98,171,111,197.3C123.1,224,135,224,148,208C160,192,172,160,185,170.7C196.9,181,209,235,222,250.7C233.8,267,246,245,258,245.3C270.8,245,283,267,295,229.3C307.7,192,320,96,332,96C344.6,96,357,192,369,224C381.5,256,394,224,406,181.3C418.5,139,431,85,443,69.3C455.4,53,468,75,480,74.7C492.3,75,505,53,517,85.3C529.2,117,542,203,554,224C566.2,245,578,203,591,208C603.1,213,615,267,628,277.3C640,288,652,256,665,256C676.9,256,689,288,702,256C713.8,224,726,128,738,85.3C750.8,43,763,53,775,85.3C787.7,117,800,171,812,192C824.6,213,837,203,849,208C861.5,213,874,235,886,245.3C898.5,256,911,256,923,213.3C935.4,171,948,85,960,58.7C972.3,32,985,64,997,80C1009.2,96,1022,96,1034,101.3C1046.2,107,1058,117,1071,133.3C1083.1,149,1095,171,1108,170.7C1120,171,1132,149,1145,149.3C1156.9,149,1169,171,1182,181.3C1193.8,192,1206,192,1218,176C1230.8,160,1243,128,1255,128C1267.7,128,1280,160,1292,170.7C1304.6,181,1317,171,1329,160C1341.5,149,1354,139,1366,149.3C1378.5,160,1391,192,1403,197.3C1415.4,203,1428,181,1434,170.7L1440,160L1440,320L1433.8,320C1427.7,320,1415,320,1403,320C1390.8,320,1378,320,1366,320C1353.8,320,1342,320,1329,320C1316.9,320,1305,320,1292,320C1280,320,1268,320,1255,320C1243.1,320,1231,320,1218,320C1206.2,320,1194,320,1182,320C1169.2,320,1157,320,1145,320C1132.3,320,1120,320,1108,320C1095.4,320,1083,320,1071,320C1058.5,320,1046,320,1034,320C1021.5,320,1009,320,997,320C984.6,320,972,320,960,320C947.7,320,935,320,923,320C910.8,320,898,320,886,320C873.8,320,862,320,849,320C836.9,320,825,320,812,320C800,320,788,320,775,320C763.1,320,751,320,738,320C726.2,320,714,320,702,320C689.2,320,677,320,665,320C652.3,320,640,320,628,320C615.4,320,603,320,591,320C578.5,320,566,320,554,320C541.5,320,529,320,517,320C504.6,320,492,320,480,320C467.7,320,455,320,443,320C430.8,320,418,320,406,320C393.8,320,382,320,369,320C356.9,320,345,320,332,320C320,320,308,320,295,320C283.1,320,271,320,258,320C246.2,320,234,320,222,320C209.2,320,197,320,185,320C172.3,320,160,320,148,320C135.4,320,123,320,111,320C98.5,320,86,320,74,320C61.5,320,49,320,37,320C24.6,320,12,320,6,320L0,320Z"></path></svg>