<?xml version="1.0" standalone="no"?><!DOCTYPE svg PUBLIC "-//W3C//DTD SVG 1.1//EN" "http://www.w3.org/Graphics/SVG/1.1/DTD/svg11.dtd"><svg t="1654241822256" class="icon" viewBox="0 0 1024 1024" version="1.1" xmlns="http://www.w3.org/2000/svg" p-id="1883" xmlns:xlink="http://www.w3.org/1999/xlink" width="200" height="200"><defs><style type="text/css"></style></defs><path d="M910.8 305.6c-5.4-10.5-16.3-17.8-28.9-17.8-17.8 0-32.2 14.4-32.2 32.1 0 6 1.7 11.7 4.6 16.5l-0.1 0.1c26.9 52.4 42.1 111.8 42.1 174.7 0 94.4-34.1 180.8-90.7 247.6-0.8-1.1-1.8-2.2-2.8-3.2L271.2 224c-1.9-1.9-4-3.5-6.2-4.8 66.8-56.8 153.4-91.1 248-91.1 62.5 0 121.5 15 173.6 41.5l0.2-0.4c4.6 2.6 10 4.1 15.7 4.1 17.8 0 32.2-14.4 32.2-32.1 0-13.1-7.9-24.4-19.3-29.4C654.6 81 585.9 63.5 513 63.5 265.7 63.5 65.2 264 65.2 511.2S265.7 958.9 513 958.9s447.7-200.4 447.7-447.7c0-74.1-18-144-49.9-205.6z m-781 205.6c0-94.8 34.4-181.4 91.3-248.3 1.3 2.2 2.9 4.4 4.9 6.3l531.5 531.6c1 1 2.1 2 3.2 2.8-66.8 56.6-153.2 90.8-247.6 90.8-211.6 0-383.3-171.5-383.3-383.2z" fill="#4D4D4D" p-id="1884"></path><path d="M772.7 219.7a32.2 32.1 0 1 0 64.4 0 32.2 32.1 0 1 0-64.4 0Z" fill="#4D4D4D" p-id="1885"></path></svg>